# xmcd
#
# Track frame offsets:
#	183
#	14348
#	29568
#	43230
#	57713
#	70435
#	83390
#	95958
#	109788
#	123313
#	137385
#	149573
#	160490
#	173533
#	186843
#	197798
#	210530
#	221690
#	234660
#	247435
#	257133
#	271643
#	284125
#
# Disc length: 3955 seconds
#
# Revision: 1
# Processed by: cddbd v1.5.1PL0 Copyright (c) Steve Scherf et al.
# Submitted via: EasyCDDAExtractor 6.0.0.1
#
DISCID=6f0f7117
DTITLE=Billie Holiday - Mastertakes' Collection 1937/38 Vol.4
DYEAR=1937
DGENRE=Blues
TTITLE0=Nice Work If You Can Get It
TTITLE1=Things Are Looking Up
TTITLE2=My Man
TTITLE3=Can't Help Lovin' Dat Man
TTITLE4=My First Impression of You
TTITLE5=When You're Smiling
TTITLE6=I Can't Believe That You're In Love With Me
TTITLE7=If Dreams Come True
TTITLE8=Now They Call It Swing
TTITLE9=On The Sentimental Side
TTITLE10=Back In Your Own Backyard
TTITLE11=When a Woman Loves a Man
TTITLE12=You Go To My Head
TTITLE13=The Moon Looks Down And Laughs
TTITLE14=If I Were You
TTITLE15=Forget If You Can
TTITLE16=Havin' Myself a Time
TTITLE17=Says My Heart
TTITLE18=I Wish I Had You
TTITLE19=I'm Gonna Lock My Heart
TTITLE20=Any Old Time
TTITLE21=The Very Thought Of You
TTITLE22=I Can't Get Started
EXTD=
EXTT0=
EXTT1=
EXTT2=
EXTT3=
EXTT4=
EXTT5=
EXTT6=
EXTT7=
EXTT8=
EXTT9=
EXTT10=
EXTT11=
EXTT12=
EXTT13=
EXTT14=
EXTT15=
EXTT16=
EXTT17=
EXTT18=
EXTT19=
EXTT20=
EXTT21=
EXTT22=
PLAYORDER=
